<svg xmlns="http://www.w3.org/2000/svg" width="23" height="23" viewBox="0 0 23 23">
  <polygon points="33.743 6.308 35.157 4.893 40.107 9.843 23.843 26.107 18.893 21.157 20.308 19.743 22.429 21.864 23.136 21.157 21.015 19.036 22.429 17.621 23.843 19.036 24.55 18.328 23.136 16.914 24.55 15.5 25.964 16.914 26.672 16.207 25.257 14.793 26.672 13.379 28.793 15.5 29.5 14.793 27.379 12.672 28.793 11.257 30.207 12.672 30.914 11.964 29.5 10.55 30.914 9.136 32.328 10.55 33.036 9.843 31.621 8.429 33.036 7.015 35.157 9.136 35.864 8.429" transform="translate(-18 -4)"/>
</svg>
