<svg xmlns="http://www.w3.org/2000/svg" width="19" height="16" viewBox="0 0 19 16">
  <path fill="#FFF" fill-rule="evenodd" d="M33.4688767,13.3099718 L28.1355799,8.1900013 C28.0035068,8.06333377 27.8472694,8 27.6667397,8 C27.48621,8 27.3298447,8.06333377 27.1980274,8.1900013 C27.0660822,8.31679158 26.9999817,8.46677969 26.9999817,8.64008837 L26.9999817,11.2000736 L24.6666484,11.2000736 C19.7151233,11.2000736 16.6770594,12.5434614 15.5519452,15.2301142 C15.1839817,16.1234149 15,17.2334742 15,18.5601694 C15,19.666792 15.440968,21.1701098 16.3229041,23.0701228 C16.3437443,23.1168867 16.3800548,23.1966676 16.4322192,23.3099565 C16.4843836,23.4232454 16.5311781,23.5232784 16.5728584,23.6099327 C16.6146667,23.6965871 16.6597991,23.7699855 16.7083836,23.8298826 C16.7916164,23.9432942 16.8889132,24 17.0000183,24 C17.1042192,24 17.18579,23.9667375 17.2448584,23.9000898 C17.3037991,23.833442 17.3333333,23.7499789 17.3333333,23.6501914 C17.3333333,23.5901716 17.3246393,23.5019216 17.3072511,23.385196 C17.289863,23.2684704 17.2811689,23.1901624 17.2811689,23.1502719 C17.2463927,22.6969936 17.2290046,22.286797 17.2290046,21.9202958 C17.2290046,21.2470677 17.289863,20.6436785 17.4113242,20.1103738 C17.5329132,19.5769464 17.7012968,19.1154445 17.9166027,18.7253772 C18.1319087,18.3351872 18.4096073,17.9986345 18.7499543,17.7153509 C19.0901735,17.4320673 19.4564749,17.2004572 19.8488584,17.0203978 C20.241242,16.8403385 20.7030502,16.6986967 21.2342831,16.5953497 C21.765516,16.4920027 22.3002009,16.4203227 22.8384658,16.3803095 C23.3767306,16.3402963 23.9860822,16.3204124 24.6666484,16.3204124 L26.9999817,16.3204124 L26.9999817,18.8803977 C26.9999817,19.0537064 27.0659543,19.2038172 27.1977717,19.330362 C27.3298447,19.4569068 27.4860822,19.5203633 27.666484,19.5203633 C27.8470137,19.5203633 28.003379,19.4569068 28.1354521,19.330362 L33.4687489,14.2102687 C33.6006941,14.0836012 33.6666667,13.9336131 33.6666667,13.7603044 C33.6666667,13.5869957 33.6006941,13.4368849 33.4688767,13.3099718 L33.4688767,13.3099718 Z" transform="matrix(-1 0 0 1 33.667 -8)"/>
</svg>
