<svg xmlns="http://www.w3.org/2000/svg" width="19" height="16" viewBox="0 0 19 16">
  <path fill="#FFF" fill-rule="evenodd" d="M82.4688767,13.3099718 L77.1355799,8.1900013 C77.0035068,8.06333377 76.8472694,8 76.6667397,8 C76.48621,8 76.3298447,8.06333377 76.1980274,8.1900013 C76.0660822,8.31679158 75.9999817,8.46677969 75.9999817,8.64008837 L75.9999817,11.2000736 L73.6666484,11.2000736 C68.7151233,11.2000736 65.6770594,12.5434614 64.5519452,15.2301142 C64.1839817,16.1234149 64,17.2334742 64,18.5601694 C64,19.666792 64.440968,21.1701098 65.3229041,23.0701228 C65.3437443,23.1168867 65.3800548,23.1966676 65.4322192,23.3099565 C65.4843836,23.4232454 65.5311781,23.5232784 65.5728584,23.6099327 C65.6146667,23.6965871 65.6597991,23.7699855 65.7083836,23.8298826 C65.7916164,23.9432942 65.8889132,24 66.0000183,24 C66.1042192,24 66.18579,23.9667375 66.2448584,23.9000898 C66.3037991,23.833442 66.3333333,23.7499789 66.3333333,23.6501914 C66.3333333,23.5901716 66.3246393,23.5019216 66.3072511,23.385196 C66.289863,23.2684704 66.2811689,23.1901624 66.2811689,23.1502719 C66.2463927,22.6969936 66.2290046,22.286797 66.2290046,21.9202958 C66.2290046,21.2470677 66.289863,20.6436785 66.4113242,20.1103738 C66.5329132,19.5769464 66.7012968,19.1154445 66.9166027,18.7253772 C67.1319087,18.3351872 67.4096073,17.9986345 67.7499543,17.7153509 C68.0901735,17.4320673 68.4564749,17.2004572 68.8488584,17.0203978 C69.241242,16.8403385 69.7030502,16.6986967 70.2342831,16.5953497 C70.765516,16.4920027 71.3002009,16.4203227 71.8384658,16.3803095 C72.3767306,16.3402963 72.9860822,16.3204124 73.6666484,16.3204124 L75.9999817,16.3204124 L75.9999817,18.8803977 C75.9999817,19.0537064 76.0659543,19.2038172 76.1977717,19.330362 C76.3298447,19.4569068 76.4860822,19.5203633 76.666484,19.5203633 C76.8470137,19.5203633 77.003379,19.4569068 77.1354521,19.330362 L82.4687489,14.2102687 C82.6006941,14.0836012 82.6666667,13.9336131 82.6666667,13.7603044 C82.6666667,13.5869957 82.6006941,13.4368849 82.4688767,13.3099718 L82.4688767,13.3099718 Z" transform="translate(-64 -8)"/>
</svg>
