<svg xmlns="http://www.w3.org/2000/svg" width="12" height="12" viewBox="0 0 12 12">
  <path opacity="0.6" fill-rule="evenodd" d="M7.2487674,6 L11.8275812,10.5788138 C12.0574729,10.8087055 12.0574729,11.1814337 11.8275812,11.4113254 L11.4113254,11.8275812 C11.1814337,12.0574729 10.8087055,12.0574729 10.5788138,11.8275812 L6,7.2487674 L1.4211862,11.8275812 C1.19129447,12.0574729 0.818566328,12.0574729 0.588674598,11.8275812 L0.172418798,11.4113254 C-0.0574729326,11.1814337 -0.0574729326,10.8087055 0.172418798,10.5788138 L4.7512326,6 L0.172418798,1.4211862 C-0.0574729326,1.19129447 -0.0574729326,0.818566328 0.172418798,0.588674598 L0.588674598,0.172418798 C0.818566328,-0.0574729326 1.19129447,-0.0574729326 1.4211862,0.172418798 L6,4.7512326 L10.5788138,0.172418798 C10.8087055,-0.0574729326 11.1814337,-0.0574729326 11.4113254,0.172418798 L11.8275812,0.588674598 C12.0574729,0.818566328 12.0574729,1.19129447 11.8275812,1.4211862 L7.2487674,6 Z" />
</svg>
