<svg xmlns="http://www.w3.org/2000/svg" width="168" height="34" viewBox="0 0 168 34">
  <path fill-rule="evenodd" d="M7.656,17.314 C9.03467356,17.314 10.2703279,17.1490016 11.363,16.819 C12.4556721,16.4889983 13.3796629,16.0160031 14.135,15.4 C14.8903371,14.7839969 15.465998,14.0433377 15.862,13.178 C16.258002,12.3126623 16.456,11.3373388 16.456,10.252 C16.456,8.03732226 15.7336739,6.39467202 14.289,5.324 C12.8443261,4.25332798 10.7360139,3.718 7.964,3.718 L2.266,3.718 L2.266,17.314 L7.656,17.314 Z M21.472,33.066 L19.536,33.066 C19.2866654,33.066 19.0776675,33.0256671 18.909,32.945 C18.7403325,32.8643329 18.5826674,32.7140011 18.436,32.494 L8.448,19.866 C8.33066608,19.7046659 8.20966729,19.5653339 8.085,19.448 C7.96033271,19.3306661 7.82100077,19.2390003 7.667,19.173 C7.51299923,19.1069997 7.32966773,19.0593335 7.117,19.03 C6.90433227,19.0006665 6.64400154,18.986 6.336,18.986 L2.266,18.986 L2.266,33.066 L0,33.066 L0,1.936 L7.964,1.936 C11.5426846,1.936 14.2229911,2.62899307 16.005,4.015 C17.7870089,5.40100693 18.678,7.43598658 18.678,10.12 C18.678,11.3080059 18.4726687,12.3933284 18.062,13.376 C17.6513313,14.3586716 17.0610038,15.2203296 16.291,15.961 C15.5209962,16.7016704 14.5896721,17.3066643 13.497,17.776 C12.4043279,18.2453357 11.1760068,18.5606659 9.812,18.722 C10.1640018,18.9420011 10.4793319,19.2353315 10.758,19.602 L21.472,33.066 Z M37.972,22.484 C35.8893229,22.5573337 34.0963408,22.7223321 32.593,22.979 C31.0896591,23.235668 29.8503382,23.5839978 28.875,24.024 C27.8996618,24.4640022 27.1773357,24.9883303 26.708,25.597 C26.2386643,26.2056697 26.004,26.8986628 26.004,27.676 C26.004,28.409337 26.1249988,29.043664 26.367,29.579 C26.6090012,30.114336 26.9316647,30.5543316 27.335,30.899 C27.7383353,31.2436684 28.2039974,31.4966659 28.732,31.658 C29.2600026,31.8193341 29.8099971,31.9 30.382,31.9 C31.2326709,31.9 32.0136631,31.8083343 32.725,31.625 C33.4363369,31.4416657 34.0963303,31.1850017 34.705,30.855 C35.3136697,30.5249984 35.8819974,30.1326689 36.41,29.678 C36.9380026,29.2233311 37.4586641,28.7320026 37.972,28.204 L37.972,22.484 Z M25.102,14.278 C26.2460057,13.1339943 27.4486604,12.2686696 28.71,11.682 C29.9713396,11.0953304 31.4013253,10.802 33,10.802 C34.1733392,10.802 35.1999956,10.9889981 36.08,11.363 C36.9600044,11.7370019 37.6896638,12.2723298 38.269,12.969 C38.8483362,13.6656701 39.2846652,14.508995 39.578,15.499 C39.8713348,16.4890049 40.018,17.5926606 40.018,18.81 L40.018,33.066 L39.182,33.066 C38.7419978,33.066 38.4706672,32.8606687 38.368,32.45 L38.06,29.634 C37.4586637,30.2206696 36.861003,30.7486643 36.267,31.218 C35.672997,31.6873357 35.0533366,32.0833317 34.408,32.406 C33.7626634,32.7286683 33.0660037,32.9779991 32.318,33.154 C31.5699963,33.3300009 30.7486711,33.418 29.854,33.418 C29.1059963,33.418 28.3800035,33.3080011 27.676,33.088 C26.9719965,32.8679989 26.3450027,32.5306689 25.795,32.076 C25.2449972,31.6213311 24.8050016,31.0383369 24.475,30.327 C24.1449983,29.6156631 23.98,28.7613383 23.98,27.764 C23.98,26.8399954 24.2439974,25.982004 24.772,25.19 C25.3000026,24.397996 26.128661,23.7086696 27.258,23.122 C28.387339,22.5353304 29.8356578,22.0660018 31.603,21.714 C33.3703422,21.3619982 35.4933209,21.156667 37.972,21.098 L37.972,18.81 C37.972,16.7859899 37.535671,15.2276721 36.663,14.135 C35.790329,13.0423279 34.4960086,12.496 32.78,12.496 C31.7239947,12.496 30.8256704,12.6426652 30.085,12.936 C29.3443296,13.2293348 28.7173359,13.5519982 28.204,13.904 C27.6906641,14.2560018 27.2726683,14.5786652 26.95,14.872 C26.6273317,15.1653348 26.3560011,15.312 26.136,15.312 C25.9746659,15.312 25.8426672,15.2753337 25.74,15.202 C25.6373328,15.1286663 25.5493337,15.0333339 25.476,14.916 L25.102,14.278 Z M49.346,11.176 L49.346,33.066 L47.256,33.066 L47.256,11.176 L49.346,11.176 Z M50.248,3.63 C50.248,3.89400132 50.1930005,4.13966553 50.083,4.367 C49.9729994,4.59433447 49.8300009,4.79599912 49.654,4.972 C49.4779991,5.14800088 49.2726678,5.28733282 49.038,5.39 C48.8033322,5.49266718 48.5540013,5.544 48.29,5.544 C48.0259987,5.544 47.7766678,5.49266718 47.542,5.39 C47.3073322,5.28733282 47.1020009,5.14800088 46.926,4.972 C46.7499991,4.79599912 46.6106672,4.59433447 46.508,4.367 C46.4053328,4.13966553 46.354,3.89400132 46.354,3.63 C46.354,3.36599868 46.4053328,3.11300121 46.508,2.871 C46.6106672,2.62899879 46.7499991,2.42000088 46.926,2.244 C47.1020009,2.06799912 47.3073322,1.92866718 47.542,1.826 C47.7766678,1.72333282 48.0259987,1.672 48.29,1.672 C48.5540013,1.672 48.8033322,1.72333282 49.038,1.826 C49.2726678,1.92866718 49.4779991,2.06799912 49.654,2.244 C49.8300009,2.42000088 49.9729994,2.62899879 50.083,2.871 C50.1930005,3.11300121 50.248,3.36599868 50.248,3.63 Z M59.114,1.056 L59.114,33.066 L57.002,33.066 L57.002,1.056 L59.114,1.056 Z M96.647,1.012 L83.799,33.066 L77.067,33.066 L64.219,1.012 L70.203,1.012 C70.8483366,1.012 71.368998,1.16233183 71.765,1.463 C72.161002,1.76366817 72.4616656,2.14866432 72.667,2.618 L78.871,19.778 C79.1643348,20.5260037 79.4503319,21.3436622 79.729,22.231 C80.0076681,23.1183378 80.2716654,24.0459952 80.521,25.014 C80.7263344,24.0459952 80.957332,23.1183378 81.214,22.231 C81.470668,21.3436622 81.7456652,20.5260037 82.039,19.778 L88.199,2.618 C88.3603341,2.20733128 88.6499979,1.83700165 89.068,1.507 C89.4860021,1.17699835 90.0029969,1.012 90.619,1.012 L96.647,1.012 Z M105.359,10.252 L105.359,33.066 L98.539,33.066 L98.539,10.252 L105.359,10.252 Z M106.063,4.004 C106.063,4.54666938 105.953001,5.05633095 105.733,5.533 C105.512999,6.00966905 105.212335,6.42766487 104.831,6.787 C104.449665,7.14633513 104.006003,7.43233227 103.5,7.645 C102.993997,7.85766773 102.455003,7.964 101.883,7.964 C101.325664,7.964 100.805002,7.85766773 100.321,7.645 C99.8369976,7.43233227 99.4080019,7.14633513 99.034,6.787 C98.6599981,6.42766487 98.3666677,6.00966905 98.154,5.533 C97.9413323,5.05633095 97.835,4.54666938 97.835,4.004 C97.835,3.44666388 97.9413323,2.92600242 98.154,2.442 C98.3666677,1.95799758 98.6599981,1.5326685 99.034,1.166 C99.4080019,0.7993315 99.8369976,0.51333436 100.321,0.308 C100.805002,0.10266564 101.325664,0 101.883,0 C102.455003,0 102.993997,0.10266564 103.5,0.308 C104.006003,0.51333436 104.449665,0.7993315 104.831,1.166 C105.212335,1.5326685 105.512999,1.95799758 105.733,2.442 C105.953001,2.92600242 106.063,3.44666388 106.063,4.004 Z M115.743,22.88 C115.963001,24.7866762 116.542329,26.1689957 117.481,27.027 C118.419671,27.8850043 119.629659,28.314 121.111,28.314 C121.903004,28.314 122.584997,28.2186676 123.157,28.028 C123.729003,27.8373324 124.238664,27.6246678 124.686,27.39 C125.133336,27.1553322 125.543998,26.9426676 125.918,26.752 C126.292002,26.5613324 126.684331,26.466 127.095,26.466 C127.637669,26.466 128.048332,26.663998 128.327,27.06 L130.307,29.502 C129.602996,30.3086707 128.844004,30.9649975 128.03,31.471 C127.215996,31.9770025 126.380004,32.3729986 125.522,32.659 C124.663996,32.9450014 123.806004,33.1429995 122.948,33.253 C122.089996,33.3630006 121.272337,33.418 120.495,33.418 C118.896325,33.418 117.396674,33.1576693 115.996,32.637 C114.595326,32.1163307 113.370672,31.3426718 112.322,30.316 C111.273328,29.2893282 110.44467,28.013341 109.836,26.488 C109.22733,24.962659 108.923,23.1880101 108.923,21.164 C108.923,19.638659 109.183331,18.1940068 109.704,16.83 C110.224669,15.4659932 110.972662,14.2706718 111.948,13.244 C112.923338,12.2173282 114.103993,11.4033363 115.49,10.802 C116.876007,10.2006637 118.441658,9.9 120.187,9.9 C121.697674,9.9 123.079994,10.1346643 124.334,10.604 C125.588006,11.0733357 126.665995,11.7553289 127.568,12.65 C128.470005,13.5446711 129.173997,14.6409935 129.68,15.939 C130.186003,17.2370065 130.439,18.7073251 130.439,20.35 C130.439,20.8633359 130.417,21.2813317 130.373,21.604 C130.329,21.9266683 130.248334,22.1833324 130.131,22.374 C130.013666,22.5646676 129.856001,22.6966663 129.658,22.77 C129.459999,22.8433337 129.207002,22.88 128.899,22.88 L115.743,22.88 Z M124.323,18.92 C124.323,18.3773306 124.253334,17.8493359 124.114,17.336 C123.974666,16.8226641 123.747335,16.3643354 123.432,15.961 C123.116665,15.5576647 122.702336,15.2313346 122.189,14.982 C121.675664,14.7326654 121.052337,14.608 120.319,14.608 C119.028327,14.608 118.016337,14.9783296 117.283,15.719 C116.549663,16.4596704 116.065668,17.5266597 115.831,18.92 L124.323,18.92 Z M167.421,10.252 L160.337,33.066 L154.793,33.066 C154.499665,33.066 154.250334,32.9780009 154.045,32.802 C153.839666,32.6259991 153.678334,32.3326687 153.561,31.922 L150.305,20.548 C150.143666,20.0346641 150.000667,19.5286692 149.876,19.03 C149.751333,18.5313308 149.637667,18.0253359 149.535,17.512 C149.432333,18.0253359 149.318667,18.5386641 149.194,19.052 C149.069333,19.5653359 148.926334,20.0786641 148.765,20.592 L145.465,31.922 C145.244999,32.6846705 144.761004,33.066 144.013,33.066 L138.733,33.066 L131.649,10.252 L137.105,10.252 C137.589002,10.252 137.995998,10.3656655 138.326,10.593 C138.656002,10.8203345 138.879666,11.102665 138.997,11.44 L141.285,21.67 C141.475668,22.4473372 141.644333,23.1989964 141.791,23.925 C141.937667,24.6510036 142.069666,25.380663 142.187,26.114 C142.377668,25.380663 142.579332,24.6510036 142.792,23.925 C143.004668,23.1989964 143.235665,22.4473372 143.485,21.67 L146.345,11.418 C146.462334,11.080665 146.682332,10.7983345 147.005,10.571 C147.327668,10.3436655 147.708998,10.23 148.149,10.23 L151.185,10.23 C151.669002,10.23 152.075998,10.3436655 152.406,10.571 C152.736002,10.7983345 152.959666,11.080665 153.077,11.418 L155.805,21.67 C156.025001,22.4473372 156.241332,23.202663 156.454,23.936 C156.666668,24.669337 156.860999,25.4099963 157.037,26.158 C157.154334,25.424663 157.293666,24.691337 157.455,23.958 C157.616334,23.224663 157.799666,22.462004 158.005,21.67 L160.425,11.44 C160.542334,11.102665 160.762332,10.8203345 161.085,10.593 C161.407668,10.3656655 161.788998,10.252 162.229,10.252 L167.421,10.252 Z"/>
</svg>
