<svg xmlns="http://www.w3.org/2000/svg" width="43" height="43" viewBox="0 0 43 43">
  <path fill="#147EFB" fill-rule="evenodd" d="M21.3714286,42.6666667 C9.56831449,42.6666667 0,33.115408 0,21.3333333 C0,9.55125867 9.56831449,0 21.3714286,0 C33.1745427,0 42.7428571,9.55125867 42.7428571,21.3333333 C42.7428571,33.115408 33.1745427,42.6666667 21.3714286,42.6666667 Z M26.9369048,27.2523427 C25.9781587,27.2523427 25.1140258,27.62751 24.4580417,28.231593 L15.4697976,22.9474565 C15.5391806,22.6613119 15.5833333,22.3624498 15.5833333,22.0572289 C15.5833333,21.752008 15.5391806,21.4531459 15.4697976,21.1670013 L24.3634286,15.9337349 C25.0383353,16.5696118 25.9403135,16.9638554 26.9369048,16.9638554 C29.0247004,16.9638554 30.7214286,15.2533467 30.7214286,13.1485944 C30.7214286,11.043842 29.0247004,9.33333333 26.9369048,9.33333333 C24.8491091,9.33333333 23.152381,11.043842 23.152381,13.1485944 C23.152381,13.4538153 23.1965337,13.7526774 23.2659167,14.038822 L14.3722857,19.2720884 C13.697379,18.6362115 12.7954008,18.2419679 11.7988095,18.2419679 C9.71101389,18.2419679 8.01428571,19.9524766 8.01428571,22.0572289 C8.01428571,24.1619813 9.71101389,25.87249 11.7988095,25.87249 C12.7954008,25.87249 13.697379,25.4782463 14.3722857,24.8423695 L23.3605298,30.126506 C23.2974544,30.3935743 23.2596091,30.6733601 23.2596091,30.9595047 C23.2596091,33.0070281 24.905877,34.6666667 26.9369048,34.6666667 C28.9679325,34.6666667 30.6142004,33.0070281 30.6142004,30.9595047 C30.6142004,28.9119813 28.9679325,27.2523427 26.9369048,27.2523427 Z"/>
</svg>
